<?xml version="1.0" standalone="no"?>
<!DOCTYPE svg PUBLIC "-//W3C//DTD SVG 20010904//EN"
 "http://www.w3.org/TR/2001/REC-SVG-20010904/DTD/svg10.dtd">
<svg version="1.0" xmlns="http://www.w3.org/2000/svg"
 width="522.000000pt" height="522.000000pt" viewBox="0 0 522.000000 522.000000"
 preserveAspectRatio="xMidYMid meet">
<metadata>
Created by Aaun
</metadata>
<g transform="translate(0.000000,522.000000) scale(0.100000,-0.100000)"
fill="#FFFFFF" stroke="none">
<path d="M3305 3921 c17 -7 15 -9 -15 -15 -19 -4 -45 -7 -57 -6 -13 0 -22 -6
-20 -13 1 -6 -6 -12 -15 -12 -9 0 -20 -4 -25 -9 -4 -5 -3 -6 5 -2 6 4 12 5 12
2 0 -3 -12 -12 -27 -20 -16 -8 -39 -32 -52 -55 -14 -22 -28 -38 -31 -36 -11 7
-14 -84 -9 -255 3 -123 -7 -165 -38 -153 -11 4 -14 3 -9 -5 9 -15 -30 -31 -56
-24 -22 5 -23 16 -3 32 8 7 15 9 15 4 0 -18 29 32 30 51 0 17 2 18 10 5 7 -10
10 22 9 105 -2 111 -10 152 -29 140 -4 -2 -12 6 -19 18 -7 13 -38 37 -70 55
-46 25 -70 32 -114 32 -53 0 -55 -1 -53 -24 2 -14 10 -32 20 -41 9 -9 16 -20
16 -25 0 -5 12 -10 28 -12 18 -2 26 -8 24 -18 -2 -8 -1 -12 3 -8 15 14 37 -24
38 -65 0 -30 -3 -41 -12 -39 -8 2 -11 -3 -8 -12 3 -8 -4 -22 -15 -33 -15 -12
-19 -13 -14 -3 4 8 0 6 -9 -5 -9 -11 -23 -19 -32 -17 -8 2 -12 -1 -9 -7 9 -13
-31 -25 -78 -22 -25 1 -42 -3 -50 -14 -9 -12 -30 -16 -86 -17 -48 0 -68 -4
-55 -9 21 -8 20 -9 -45 -14 -69 -5 -67 -4 -50 -15 12 -8 10 -10 -10 -10 -15 0
-31 -9 -38 -21 -7 -12 -15 -19 -18 -16 -6 6 -82 -66 -78 -74 2 -3 -6 -16 -16
-27 -11 -12 -20 -25 -19 -29 1 -4 1 -15 0 -23 -1 -13 -2 -13 -12 0 -8 12 -10
9 -6 -13 2 -15 0 -49 -6 -75 -8 -38 -11 -43 -17 -27 -6 14 -8 8 -8 -22 0 -46
-8 -67 -24 -57 -5 3 -8 -2 -7 -12 4 -24 -29 -87 -41 -79 -5 3 -10 -2 -12 -11
-3 -16 -106 -57 -120 -48 -5 3 -8 1 -8 -5 0 -11 -39 -26 -59 -22 -7 1 -10 -2
-7 -8 8 -12 -28 -33 -39 -23 -5 4 -5 2 -2 -4 4 -7 -16 -27 -48 -49 -29 -21
-56 -44 -59 -52 -3 -8 -10 -11 -16 -8 -5 3 -10 1 -10 -5 0 -16 -90 -140 -101
-140 -5 0 -8 -3 -8 -7 4 -22 -2 -33 -13 -27 -8 5 -9 2 -5 -9 3 -10 2 -17 -4
-17 -5 0 -9 -6 -8 -12 1 -7 1 -20 0 -28 -1 -13 -2 -13 -12 0 -7 12 -9 8 -7
-15 1 -16 -1 -57 -6 -90 -6 -45 -10 -55 -17 -40 -5 13 -7 0 -7 -40 1 -53 2
-56 7 -20 6 38 7 37 15 -30 5 -38 8 -81 8 -95 0 -14 3 -19 6 -11 3 9 19 -14
38 -55 19 -38 34 -66 34 -62 0 4 12 -5 28 -19 15 -14 26 -29 24 -34 -1 -5 3
-9 10 -9 7 0 23 -12 35 -27 13 -14 26 -24 29 -20 3 3 14 -1 23 -10 20 -17 17
-61 -5 -70 -8 -3 -11 -9 -8 -15 10 -15 -5 -60 -18 -52 -7 5 -9 0 -6 -14 4 -12
2 -22 -3 -22 -4 0 -6 -6 -3 -13 3 -8 -2 -20 -11 -27 -8 -7 -15 -21 -15 -32 0
-12 -4 -17 -12 -12 -8 5 -9 2 -5 -9 8 -21 -79 -141 -95 -131 -6 4 -8 3 -4 -4
6 -11 -10 -26 -29 -27 -5 -1 -9 -7 -7 -14 1 -7 -2 -10 -6 -7 -15 9 -41 -27
-39 -53 2 -26 31 -46 55 -36 9 4 88 9 175 12 116 3 157 1 157 -7 0 -9 22 -10
83 -6 253 18 286 26 252 60 -10 9 -15 25 -12 36 3 11 1 18 -4 14 -5 -3 -9 1
-9 8 0 15 20 48 20 33 0 -5 7 3 15 19 9 16 15 37 13 45 -1 9 2 32 7 51 7 30 9
32 16 15 l8 -20 1 20 c2 11 2 24 1 29 -1 6 1 21 4 35 5 20 8 22 16 10 7 -11 9
-10 10 6 1 11 0 28 -1 38 -3 28 19 47 54 46 l31 -1 -30 -8 c-27 -7 108 -13
235 -12 32 1 33 0 10 -8 -23 -8 -21 -9 11 -7 20 1 47 -6 61 -15 14 -9 37 -18
52 -20 15 -2 26 -7 26 -11 -1 -10 21 -32 41 -39 12 -5 15 -14 12 -32 -3 -16
-1 -26 7 -26 8 0 10 -10 5 -32 -4 -22 -3 -28 3 -20 7 11 10 10 16 -3 3 -9 4
-21 0 -26 -3 -5 -1 -9 4 -9 8 0 35 -45 36 -62 1 -4 11 -15 24 -23 12 -9 22
-23 22 -31 0 -8 6 -14 14 -14 7 0 16 -8 18 -18 4 -15 16 -17 91 -15 55 2 87
-1 87 -8 0 -10 317 -7 370 4 14 3 53 6 88 6 58 1 62 2 62 24 0 13 -9 32 -20
42 -11 10 -20 14 -20 10 0 -5 -13 4 -30 20 -16 15 -29 31 -28 34 2 20 -4 31
-14 29 -8 -2 -14 9 -16 26 -3 20 -6 25 -12 16 -5 -9 -10 -3 -15 19 -8 39 -35
92 -35 71 0 -13 -1 -13 -10 0 -12 19 -13 33 -1 26 5 -4 4 5 -2 18 -7 14 -15
20 -18 14 -8 -13 -19 16 -19 50 0 21 -2 24 -10 12 -7 -11 -11 -4 -16 26 -3 23
-17 54 -30 69 -13 16 -24 32 -24 38 0 5 18 26 39 46 21 20 42 46 46 59 3 12
11 20 16 17 9 -6 11 2 11 55 0 75 -3 96 -11 75 -7 -16 -9 -14 -14 14 -4 19 -7
52 -8 75 0 30 -3 36 -8 21 -7 -16 -9 -14 -14 14 -4 19 -7 51 -7 73 0 24 -4 37
-10 33 -5 -3 -10 1 -10 9 0 9 4 16 9 16 5 0 12 17 16 38 6 31 9 34 15 17 6
-13 9 3 9 48 1 37 -3 67 -8 67 -6 0 -17 13 -27 29 -29 50 -72 18 -75 -57 -1
-24 -3 -23 -9 8 -8 34 -8 34 -7 -10 0 -33 -6 -56 -25 -83 -13 -20 -28 -34 -32
-29 -4 4 -7 3 -6 -3 4 -19 -2 -50 -7 -37 -2 6 -9 12 -14 12 -5 0 -5 -9 1 -22
5 -13 12 -44 15 -70 3 -26 10 -50 16 -53 5 -4 9 -15 9 -26 0 -11 -4 -17 -10
-14 -5 3 -10 0 -10 -7 -1 -9 -3 -9 -9 2 -12 20 -51 137 -50 147 5 28 -3 53
-16 53 -11 0 -15 14 -16 58 -1 36 -4 46 -7 27 -4 -28 -6 -27 -19 20 -8 28 -16
64 -19 80 -3 28 -3 28 5 5 8 -23 9 -24 10 -3 1 12 -3 25 -9 28 -5 3 -10 18
-11 33 0 24 -1 25 -9 7 -8 -19 -9 -18 -11 5 -2 14 -4 34 -5 45 -1 11 -3 36 -4
55 -2 32 -3 33 -9 10 -7 -22 -9 -20 -15 20 -4 25 -7 50 -6 55 1 6 1 28 0 50
-2 38 -3 39 -9 10 l-7 -30 -7 40 c-13 75 -10 87 21 85 15 -1 41 -2 57 -1 24 1
27 3 15 12 -11 7 0 9 40 5 40 -4 49 -3 35 4 -18 8 -16 10 10 9 58 -2 71 1 56
10 -10 6 -1 11 28 16 22 4 39 11 36 16 -3 4 6 11 20 15 14 3 24 9 21 11 -6 6
57 68 66 65 4 -1 10 9 14 23 3 14 10 22 15 19 5 -3 9 5 9 18 0 13 3 34 7 47 6
23 7 23 14 5 6 -16 8 -15 9 9 2 31 2 90 1 145 -1 25 -4 33 -10 23 -7 -10 -11
-5 -16 17 -3 18 -4 36 -1 41 3 5 -4 20 -15 35 -26 33 -18 46 29 47 30 0 33 2
17 9 -18 8 -18 9 -2 9 10 1 25 8 34 16 8 8 18 13 22 10 4 -2 18 18 31 45 18
38 21 58 16 92 -6 40 -6 41 8 22 8 -11 16 -36 19 -55 l4 -34 1 35 c1 28 -8 48
-47 97 -27 34 -51 60 -53 57 -3 -2 -19 8 -35 23 -16 15 -37 28 -46 29 -10 0
-29 2 -44 3 -25 2 -26 3 -8 11 14 6 -4 9 -55 9 -46 0 -67 -3 -55 -8z m115 -32
c55 -12 124 -63 145 -106 8 -17 15 -51 15 -76 0 -37 -5 -50 -32 -76 -30 -30
-68 -42 -68 -22 0 5 14 19 30 31 25 18 30 28 30 64 0 34 -6 48 -32 73 -69 67
-180 65 -244 -3 -49 -51 -50 -69 -15 -299 6 -38 14 -99 18 -135 l8 -65 24 33
c27 38 29 94 10 233 -7 47 -10 93 -6 102 11 30 37 18 57 -25 11 -24 37 -71 59
-106 71 -114 77 -243 15 -333 -40 -58 -180 -115 -357 -144 -108 -18 -160 -34
-224 -69 l-42 -24 -26 20 c-14 11 -25 14 -25 8 0 -6 7 -13 15 -16 8 -4 15 -10
15 -15 0 -5 -7 -9 -15 -9 -8 0 -15 4 -15 9 0 5 -8 12 -17 15 -21 8 -74 -42
-110 -104 -32 -56 -77 -105 -125 -136 -60 -38 -57 -28 14 44 75 76 106 130
114 199 8 67 33 142 62 185 19 29 45 48 108 78 46 22 88 40 94 40 6 0 18 4 28
10 9 5 43 19 74 31 100 36 113 77 86 266 -10 72 -10 89 5 135 26 81 111 161
195 184 58 16 76 16 132 3z m43 -175 c27 -27 25 -43 -10 -82 -16 -17 -17 -54
-2 -69 7 -7 8 -13 0 -17 -11 -7 -56 57 -78 113 -7 20 -18 43 -23 52 -12 23 -3
29 45 29 32 0 49 -6 68 -26z m-583 1 c7 -9 28 -22 46 -31 55 -26 104 -162 75
-210 -9 -16 -11 -13 -11 21 l-1 40 -17 -40 c-24 -58 -50 -98 -76 -117 -12 -9
-71 -30 -132 -48 -143 -41 -183 -60 -238 -110 -49 -45 -67 -89 -81 -195 -8
-57 -26 -105 -58 -153 -19 -29 -57 -59 -227 -180 -55 -39 53 63 130 123 69 54
119 133 120 190 1 63 30 167 59 210 17 25 26 45 21 45 -6 0 -10 -4 -10 -10 0
-5 -7 -10 -16 -10 -9 0 -33 -13 -53 -28 -61 -48 -65 -49 -57 -16 l8 29 -27
-25 c-37 -34 -67 -83 -94 -155 -13 -33 -34 -87 -47 -120 l-24 -60 24 27 c13
15 34 57 46 95 12 37 26 72 31 78 12 13 11 3 -10 -92 -21 -99 -53 -148 -136
-211 -33 -25 -85 -69 -115 -97 -81 -77 -170 -146 -180 -140 -19 12 25 106 87
185 l28 34 -40 -24 c-62 -37 -72 -44 -116 -85 -22 -20 -43 -35 -45 -32 -8 8
143 135 186 157 23 12 59 20 88 20 41 0 52 5 79 33 63 66 91 126 142 303 48
163 147 231 390 270 111 17 209 60 241 104 11 15 23 49 26 74 6 38 3 52 -17
81 -13 20 -39 43 -56 52 -18 8 -33 19 -33 24 0 15 77 10 90 -6z m137 -97 c-3
-8 -6 -5 -6 6 -1 11 2 17 5 13 3 -3 4 -12 1 -19z m267 -113 c5 -64 4 -66 -5
-25 -12 52 -13 58 -11 84 3 37 10 10 16 -59z m-597 -91 c-3 -3 -12 -4 -19 -1
-8 3 -5 6 6 6 11 1 17 -2 13 -5z m610 -31 c-3 -10 -5 -4 -5 12 0 17 2 24 5 18
2 -7 2 -21 0 -30z m-362 -83 c-27 -12 -43 -12 -25 0 8 5 22 9 30 9 10 0 8 -3
-5 -9z m-304 -231 c-5 -13 -10 -19 -10 -12 -1 15 10 45 15 40 3 -2 0 -15 -5
-28z m-44 -86 c-3 -10 -5 -4 -5 12 0 17 2 24 5 18 2 -7 2 -21 0 -30z m30 -15
c-3 -8 -6 -5 -6 6 -1 11 2 17 5 13 3 -3 4 -12 1 -19z m-39 -61 c-6 -19 -19
-44 -30 -58 l-19 -24 16 32 c8 18 20 44 25 58 14 37 20 31 8 -8z m252 -57
c-33 -49 -58 -102 -80 -170 -29 -91 -51 -122 -62 -89 -2 6 -15 12 -30 12 -14
1 -24 5 -22 9 3 4 -9 16 -26 27 -20 12 -27 21 -20 26 6 4 19 1 28 -7 15 -12
16 -11 3 5 -12 16 -6 25 65 95 70 68 179 162 189 162 2 0 -18 -32 -45 -70z
m191 -22 c1 -13 1 -28 0 -35 -1 -6 3 -14 9 -18 5 -3 10 -19 10 -35 0 -16 5
-32 10 -35 6 -4 10 -14 9 -23 -1 -10 0 -24 4 -32 10 -27 20 -75 18 -87 -1 -6
3 -14 9 -18 5 -3 10 -17 10 -29 0 -30 31 -129 43 -137 5 -4 7 -11 3 -17 -3 -5
1 -26 9 -46 8 -20 14 -38 13 -40 -2 -2 6 -13 16 -25 11 -12 16 -24 13 -27 -3
-4 0 -22 8 -41 22 -52 18 -62 -10 -28 -14 17 -25 24 -25 16 0 -20 -56 53 -97
126 -23 42 -41 94 -54 159 -11 54 -21 99 -23 101 -8 9 -27 -94 -27 -153 -1
-68 -8 -74 -30 -22 -7 18 -23 46 -36 62 -19 23 -21 31 -11 37 9 6 6 9 -11 9
-13 0 -30 8 -37 18 -20 26 -17 33 11 22 27 -10 29 -5 25 67 -1 19 14 65 34
111 20 44 36 89 36 101 0 25 17 28 23 4 3 -15 6 -13 17 10 16 33 30 35 31 5z
m-405 -236 c-8 -7 -65 31 -60 40 3 4 18 -2 34 -14 17 -12 28 -23 26 -26z
m-341 28 c-3 -5 -12 -10 -18 -10 -7 0 -6 4 3 10 19 12 23 12 15 0z m-101 -92
c-38 -40 -72 -72 -77 -70 -5 1 -6 -2 -2 -8 4 -6 2 -16 -3 -23 -12 -15 -82
-145 -82 -152 1 -31 -3 -57 -7 -42 -2 9 -9 17 -14 17 -5 0 -9 17 -8 38 0 46
33 132 42 111 4 -8 4 -4 2 7 -4 16 4 31 27 55 18 18 33 36 33 41 0 12 27 28
37 22 5 -3 7 -1 6 5 -3 12 80 71 101 71 7 0 -17 -33 -55 -72z m496 43 c0 -5
14 -11 30 -14 23 -5 30 -12 30 -29 0 -13 -4 -18 -8 -13 -16 22 -49 34 -61 22
-15 -15 -36 6 -28 27 7 17 37 22 37 7z m725 -50 c3 -5 1 -12 -5 -16 -5 -3 -10
-17 -10 -30 0 -13 -11 -37 -25 -52 l-25 -28 15 37 c8 21 15 48 15 61 0 33 21
50 35 28z m-715 -21 c0 -5 -2 -10 -4 -10 -3 0 -8 5 -11 10 -3 6 -1 10 4 10 6
0 11 -4 11 -10z m757 -12 c-3 -8 -6 -5 -6 6 -1 11 2 17 5 13 3 -3 4 -12 1 -19z
m-594 -8 c3 -11 1 -18 -4 -14 -5 3 -9 12 -9 20 0 20 7 17 13 -6z m-1206 -51
c-13 -30 -29 -65 -36 -79 l-11 -25 5 25 c7 30 57 141 62 136 2 -1 -7 -27 -20
-57z m1016 -9 c-3 -17 -2 -21 5 -12 7 10 11 5 16 -18 3 -18 3 -37 -1 -43 -3
-6 -1 -7 5 -3 14 8 32 -54 32 -111 0 -32 4 -43 15 -43 15 0 19 -20 15 -69 -1
-14 2 -21 9 -17 10 7 16 -12 12 -41 -1 -7 3 -13 10 -13 6 0 9 -8 6 -20 -3 -13
-1 -18 6 -13 6 4 8 -2 5 -15 -4 -13 -2 -20 3 -16 6 3 7 -6 4 -23 -5 -19 -4
-24 3 -14 8 10 11 6 17 -18 4 -18 5 -34 3 -36 -1 -1 -30 3 -63 10 -46 9 -54
13 -35 17 14 3 -2 5 -35 5 -82 -1 -186 13 -179 24 3 5 -6 9 -20 9 -19 0 -26 5
-26 19 0 11 5 23 10 26 6 3 10 15 10 25 0 10 7 25 15 34 8 8 15 27 16 43 0 25
1 26 9 8 7 -16 9 -13 8 15 -2 48 11 87 23 69 6 -9 9 -1 9 26 0 40 19 89 21 55
0 -10 3 -8 8 5 5 11 4 25 -1 32 -5 7 -5 14 1 17 5 3 12 0 15 -6 3 -7 4 -1 2
14 -1 15 1 25 5 22 5 -3 9 12 10 33 0 30 2 34 9 18 7 -15 9 -10 10 25 1 34 3
40 10 25 4 -11 6 -31 3 -45z m-521 13 c-19 -29 -34 -60 -72 -147 -27 -65 -36
-53 -11 14 20 51 85 160 97 160 3 0 -3 -12 -14 -27z m-425 -5 c-3 -8 -6 -5 -6
6 -1 11 2 17 5 13 3 -3 4 -12 1 -19z m268 -44 c-31 -83 -31 -135 -1 -200 26
-56 57 -84 93 -84 30 0 29 17 -2 62 -40 59 -29 61 28 3 55 -54 172 -118 270
-146 51 -14 58 -24 27 -34 -56 -18 3 -51 115 -65 132 -15 229 -32 239 -41 5
-5 -6 -6 -25 -4 -242 30 -399 54 -444 66 -158 42 -261 113 -310 214 -42 84
-36 193 13 273 24 37 23 25 -3 -44z m-250 -124 c37 -122 163 -266 285 -327 80
-39 187 -68 305 -82 139 -17 148 -20 45 -16 -221 9 -400 82 -522 213 -82 90
-150 226 -147 297 1 22 3 17 34 -85z m-138 28 c-3 -8 -6 -5 -6 6 -1 11 2 17 5
13 3 -3 4 -12 1 -19z m1758 -57 c-8 -16 -17 -56 -20 -88 -9 -89 -13 -99 -46
-132 -25 -25 -38 -31 -72 -30 l-42 2 40 6 c48 8 68 19 59 33 -4 6 -1 13 5 17
6 4 18 40 27 80 17 86 39 141 54 141 6 0 5 -11 -5 -29z m-575 -53 c0 -18 -2
-20 -9 -8 -6 8 -7 18 -5 22 9 14 14 9 14 -14z m598 -208 c-55 -73 -68 -94 -83
-138 -48 -136 -83 -182 -177 -236 -27 -15 -59 -39 -73 -54 -14 -15 -25 -23
-25 -19 0 23 28 52 95 97 82 56 114 96 144 182 26 77 37 94 89 150 51 55 64
62 30 18z m-365 -85 c-3 -16 -19 -58 -35 -91 -55 -115 -66 -188 -43 -285 10
-38 15 -73 11 -76 -8 -8 -45 77 -55 129 -5 24 -12 51 -16 61 -4 10 -3 17 4 17
6 0 11 19 11 45 0 56 17 97 62 157 20 25 38 59 42 74 10 38 27 11 19 -31z
m-1148 -55 c3 -5 1 -10 -4 -10 -6 0 -11 5 -11 10 0 6 2 10 4 10 3 0 8 -4 11
-10z m760 -80 l30 -8 -35 0 c-19 -1 -53 3 -75 7 l-40 9 45 0 c25 0 59 -4 75
-8z m-348 -272 c-3 -8 -6 -5 -6 6 -1 11 2 17 5 13 3 -3 4 -12 1 -19z"/>
<path d="M2647 2639 c7 -7 15 -10 18 -7 3 3 -2 9 -12 12 -14 6 -15 5 -6 -5z"/>
<path d="M2681 2314 c0 -11 3 -14 6 -6 3 7 2 16 -1 19 -3 4 -6 -2 -5 -13z"/>
<path d="M3101 2654 c0 -11 3 -14 6 -6 3 7 2 16 -1 19 -3 4 -6 -2 -5 -13z"/>
<path d="M3241 2204 c0 -11 3 -14 6 -6 3 7 2 16 -1 19 -3 4 -6 -2 -5 -13z"/>
<path d="M3328 1263 c28 -2 76 -2 105 0 28 2 5 3 -53 3 -58 0 -81 -1 -52 -3z"/>
</g>
</svg>
